<svg width="250" height="58" viewBox="0 0 250 58" fill="none" xmlns="http://www.w3.org/2000/svg">
<path d="M2.03 35V14.35C2.03 13.51 2.22833 12.7517 2.625 12.075C3.045 11.375 3.59333 10.8267 4.27 10.43C4.97 10.01 5.74 9.8 6.58 9.8H22.645C23.485 9.8 24.255 10.01 24.955 10.43C25.655 10.8267 26.2033 11.375 26.6 12.075C27.02 12.7517 27.23 13.51 27.23 14.35V35H23.415V26.18H5.81V35H2.03ZM5.81 22.4H23.415V14.455C23.415 14.2217 23.3333 14.0233 23.17 13.86C23.0067 13.6733 22.8083 13.58 22.575 13.58H6.685C6.45167 13.58 6.24167 13.6733 6.055 13.86C5.89167 14.0233 5.81 14.2217 5.81 14.455V22.4ZM38.9878 35C38.1478 35 37.3895 34.79 36.7128 34.37C36.0361 33.95 35.4878 33.4017 35.0678 32.725C34.6478 32.0483 34.4378 31.29 34.4378 30.45V29.925H38.2178V30.345C38.2178 30.5783 38.2995 30.7883 38.4628 30.975C38.6495 31.1383 38.8595 31.22 39.0928 31.22H50.4328C50.6661 31.22 50.8645 31.1383 51.0278 30.975C51.1911 30.7883 51.2728 30.5783 51.2728 30.345V27.615C51.2728 27.3817 51.1911 27.1833 51.0278 27.02C50.8645 26.8333 50.6661 26.74 50.4328 26.74H38.9878C38.1478 26.74 37.3895 26.5417 36.7128 26.145C36.0361 25.725 35.4878 25.1767 35.0678 24.5C34.6478 23.8 34.4378 23.03 34.4378 22.19V19.25C34.4378 18.41 34.6478 17.6517 35.0678 16.975C35.4878 16.2983 36.0361 15.75 36.7128 15.33C37.3895 14.91 38.1478 14.7 38.9878 14.7H50.5378C51.3778 14.7 52.1361 14.91 52.8128 15.33C53.5128 15.75 54.0611 16.2983 54.4578 16.975C54.8778 17.6517 55.0878 18.41 55.0878 19.25V19.775H51.2728V19.355C51.2728 19.1217 51.1911 18.9233 51.0278 18.76C50.8645 18.5733 50.6661 18.48 50.4328 18.48H39.0928C38.8595 18.48 38.6495 18.5733 38.4628 18.76C38.2995 18.9233 38.2178 19.1217 38.2178 19.355V22.085C38.2178 22.3183 38.2995 22.5283 38.4628 22.715C38.6495 22.8783 38.8595 22.96 39.0928 22.96H50.5378C51.3778 22.96 52.1361 23.17 52.8128 23.59C53.5128 23.9867 54.0611 24.535 54.4578 25.235C54.8778 25.9117 55.0878 26.67 55.0878 27.51V30.45C55.0878 31.29 54.8778 32.0483 54.4578 32.725C54.0611 33.4017 53.5128 33.95 52.8128 34.37C52.1361 34.79 51.3778 35 50.5378 35H38.9878ZM66.657 35C65.817 35 65.047 34.79 64.347 34.37C63.6703 33.95 63.122 33.4017 62.702 32.725C62.3053 32.0483 62.107 31.29 62.107 30.45V8.295H65.887V14.7H74.217V18.48H65.887V30.345C65.887 30.5783 65.9686 30.7883 66.132 30.975C66.3186 31.1383 66.5286 31.22 66.762 31.22H74.217V35H66.657ZM80.5768 35V19.25C80.5768 18.41 80.7868 17.6517 81.2068 16.975C81.6268 16.2983 82.1752 15.75 82.8518 15.33C83.5518 14.91 84.3102 14.7 85.1268 14.7H96.4668V18.48H85.2318C84.9985 18.48 84.7885 18.5733 84.6018 18.76C84.4385 18.9233 84.3568 19.1217 84.3568 19.355V35H80.5768ZM106.947 35C106.107 35 105.337 34.79 104.637 34.37C103.96 33.95 103.412 33.4017 102.992 32.725C102.595 32.0483 102.397 31.29 102.397 30.45V22.96H119.232V19.355C119.232 19.1217 119.15 18.9233 118.987 18.76C118.824 18.5733 118.625 18.48 118.392 18.48H102.397V14.7H118.497C119.337 14.7 120.095 14.91 120.772 15.33C121.472 15.7267 122.02 16.275 122.417 16.975C122.837 17.675 123.047 18.4333 123.047 19.25V35H106.947ZM107.052 31.22H119.232V26.495H106.177V30.345C106.177 30.5783 106.259 30.7883 106.422 30.975C106.609 31.1383 106.819 31.22 107.052 31.22ZM150.989 35L143.114 25.585H148.049L155.399 34.3V35H150.989ZM130.339 35V9.835H150.954C151.794 9.835 152.564 10.045 153.264 10.465C153.964 10.885 154.512 11.445 154.909 12.145C155.329 12.8217 155.539 13.5683 155.539 14.385V21.455C155.539 22.295 155.329 23.065 154.909 23.765C154.512 24.4417 153.964 24.99 153.264 25.41C152.564 25.8067 151.794 26.005 150.954 26.005L134.119 26.04V35H130.339ZM134.994 22.19H150.884C151.117 22.19 151.316 22.1083 151.479 21.945C151.642 21.7817 151.724 21.5833 151.724 21.35V14.49C151.724 14.2567 151.642 14.0583 151.479 13.895C151.316 13.7083 151.117 13.615 150.884 13.615H134.994C134.761 13.615 134.551 13.7083 134.364 13.895C134.201 14.0583 134.119 14.2567 134.119 14.49V21.35C134.119 21.5833 134.201 21.7817 134.364 21.945C134.551 22.1083 134.761 22.19 134.994 22.19ZM167.166 35C166.326 35 165.556 34.79 164.856 34.37C164.179 33.95 163.631 33.4017 163.211 32.725C162.814 32.0483 162.616 31.29 162.616 30.45V14.7H166.396V30.345C166.396 30.5783 166.477 30.7883 166.641 30.975C166.827 31.1383 167.037 31.22 167.271 31.22H178.611C178.844 31.22 179.042 31.1383 179.206 30.975C179.392 30.7883 179.486 30.5783 179.486 30.345V14.7H183.266V30.45C183.266 31.29 183.056 32.0483 182.636 32.725C182.239 33.4017 181.691 33.95 180.991 34.37C180.314 34.79 179.556 35 178.716 35H167.166ZM189.701 35V14.7H215.636C216.499 14.7 217.269 14.91 217.946 15.33C218.622 15.75 219.159 16.2983 219.556 16.975C219.976 17.6517 220.186 18.41 220.186 19.25V35H216.441V19.355C216.441 19.1217 216.347 18.9233 216.161 18.76C215.997 18.5733 215.799 18.48 215.566 18.48H207.761C207.504 18.48 207.294 18.5733 207.131 18.76C206.967 18.9233 206.886 19.1217 206.886 19.355V35H203.071V19.355C203.071 19.1217 202.977 18.9233 202.791 18.76C202.627 18.5733 202.429 18.48 202.196 18.48H194.356C194.122 18.48 193.924 18.5733 193.761 18.76C193.597 18.9233 193.516 19.1217 193.516 19.355V35H189.701ZM231.347 35C230.507 35 229.748 34.79 229.072 34.37C228.395 33.95 227.847 33.4017 227.427 32.725C227.007 32.0483 226.797 31.29 226.797 30.45V19.25C226.797 18.41 227.007 17.6517 227.427 16.975C227.847 16.2983 228.395 15.75 229.072 15.33C229.748 14.91 230.507 14.7 231.347 14.7H242.897C243.737 14.7 244.495 14.91 245.172 15.33C245.872 15.7267 246.42 16.275 246.817 16.975C247.237 17.675 247.447 18.4333 247.447 19.25V26.74H230.577V30.345C230.577 30.5783 230.658 30.7883 230.822 30.975C231.008 31.1383 231.218 31.22 231.452 31.22H247.447V35H231.347ZM230.577 23.205H243.632V19.355C243.632 19.1217 243.55 18.9233 243.387 18.76C243.223 18.5733 243.025 18.48 242.792 18.48H231.452C231.218 18.48 231.008 18.5733 230.822 18.76C230.658 18.9233 230.577 19.1217 230.577 19.355V23.205Z" fill="white"/>
<path d="M58.696 55V46.36H66.58V47.332H59.668V50.188H65.224V51.172H59.668V54.028H66.58V55H58.696ZM78.7795 55V54.988L82.4035 50.68L78.7795 46.372V46.36H80.0275L83.0395 49.924L86.0395 46.36H87.2875V46.372L83.6635 50.68L87.2995 54.988V55H86.0395L83.0395 51.436L80.0275 55H78.7795ZM99.6778 55V46.372H106.878C107.142 46.372 107.382 46.44 107.598 46.576C107.822 46.704 107.998 46.876 108.126 47.092C108.254 47.308 108.318 47.548 108.318 47.812V50.344C108.318 50.608 108.254 50.848 108.126 51.064C107.998 51.28 107.822 51.456 107.598 51.592C107.382 51.72 107.142 51.784 106.878 51.784H100.65V55H99.6778ZM101.118 50.8H106.878C107.006 50.8 107.114 50.756 107.202 50.668C107.298 50.58 107.346 50.472 107.346 50.344V47.812C107.346 47.684 107.298 47.576 107.202 47.488C107.114 47.392 107.006 47.344 106.878 47.344H101.118C100.99 47.344 100.878 47.392 100.782 47.488C100.694 47.576 100.65 47.684 100.65 47.812V50.344C100.65 50.472 100.694 50.58 100.782 50.668C100.878 50.756 100.99 50.8 101.118 50.8ZM120.222 55V46.348H121.194V54.028H128.862V55H120.222ZM142.018 55C141.754 55 141.51 54.936 141.286 54.808C141.07 54.68 140.898 54.508 140.77 54.292C140.642 54.068 140.578 53.824 140.578 53.56V47.8C140.578 47.536 140.642 47.296 140.77 47.08C140.898 46.856 141.07 46.68 141.286 46.552C141.51 46.424 141.754 46.36 142.018 46.36H147.778C148.042 46.36 148.282 46.424 148.498 46.552C148.722 46.68 148.898 46.856 149.026 47.08C149.154 47.296 149.218 47.536 149.218 47.8V53.56C149.218 53.824 149.154 54.068 149.026 54.292C148.898 54.508 148.722 54.68 148.498 54.808C148.282 54.936 148.042 55 147.778 55H142.018ZM142.018 54.028H147.778C147.906 54.028 148.014 53.984 148.102 53.896C148.198 53.8 148.246 53.688 148.246 53.56V47.8C148.246 47.672 148.198 47.564 148.102 47.476C148.014 47.38 147.906 47.332 147.778 47.332H142.018C141.89 47.332 141.778 47.38 141.682 47.476C141.594 47.564 141.55 47.672 141.55 47.8V53.56C141.55 53.688 141.594 53.8 141.682 53.896C141.778 53.984 141.89 54.028 142.018 54.028ZM168.875 55L166.055 51.64H167.327L170.159 54.988V55H168.875ZM161.579 55V46.372H168.779C169.043 46.372 169.283 46.44 169.499 46.576C169.723 46.704 169.899 46.876 170.027 47.092C170.155 47.308 170.219 47.548 170.219 47.812V50.344C170.219 50.608 170.155 50.848 170.027 51.064C169.899 51.28 169.723 51.456 169.499 51.592C169.283 51.72 169.043 51.784 168.779 51.784H162.551V55H161.579ZM163.019 50.8H168.779C168.907 50.8 169.015 50.756 169.103 50.668C169.199 50.58 169.247 50.472 169.247 50.344V47.812C169.247 47.684 169.199 47.576 169.103 47.488C169.015 47.392 168.907 47.344 168.779 47.344H163.019C162.891 47.344 162.779 47.392 162.683 47.488C162.595 47.576 162.551 47.684 162.551 47.812V50.344C162.551 50.472 162.595 50.58 162.683 50.668C162.779 50.756 162.891 50.8 163.019 50.8ZM182.545 55V46.36H190.429V47.332H183.517V50.188H189.073V51.172H183.517V54.028H190.429V55H182.545Z" fill="white"/>
</svg>
