<svg width="207" height="138" viewBox="0 0 207 138" fill="none" xmlns="http://www.w3.org/2000/svg">
<path d="M91.9511 55C91.2311 55 90.5711 54.83 89.9711 54.49C89.3911 54.13 88.9211 53.66 88.5611 53.08C88.2211 52.48 88.0511 51.82 88.0511 51.1V37.3C88.0511 36.58 88.2211 35.93 88.5611 35.35C88.9211 34.75 89.3911 34.28 89.9711 33.94C90.5711 33.58 91.2311 33.4 91.9511 33.4H105.721C106.441 33.4 107.101 33.58 107.701 33.94C108.301 34.28 108.771 34.75 109.111 35.35C109.471 35.93 109.651 36.58 109.651 37.3V38.59H106.381V37.39C106.381 37.19 106.311 37.02 106.171 36.88C106.031 36.72 105.851 36.64 105.631 36.64H92.0411C91.8411 36.64 91.6611 36.72 91.5011 36.88C91.3611 37.02 91.2911 37.19 91.2911 37.39V51.01C91.2911 51.21 91.3611 51.39 91.5011 51.55C91.6611 51.69 91.8411 51.76 92.0411 51.76H105.631C105.851 51.76 106.031 51.69 106.171 51.55C106.311 51.39 106.381 51.21 106.381 51.01V46.42H101.281V43.15H109.651V51.1C109.651 51.82 109.471 52.48 109.111 53.08C108.771 53.66 108.301 54.13 107.701 54.49C107.101 54.83 106.441 55 105.721 55H91.9511ZM113.013 55V33.4H132.813V36.64H116.283V42.55H129.573V45.85H116.283V51.76H132.813V55H113.013ZM144.022 55V36.64H134.842V33.4H156.442V36.64H147.292V55H144.022Z" fill="white"/>
<path d="M144.367 88.36V77.5H141.667V74.8H138.937V69.07H141.967V74.5H144.667V77.23H147.127V74.5H149.827V69.07H152.887V74.8H150.127V77.5H147.427V88.36H144.367ZM158.659 88.36V85.66H155.929V71.8H158.659V69.07H167.119V71.8H169.879V85.66H167.119V88.36H158.659ZM158.959 85.36H166.819V72.1H158.959V85.36ZM176.237 88.36V85.66H173.507V69.07H176.537V85.36H184.397V69.07H187.457V85.66H184.697V88.36H176.237ZM191.085 88.36V71.8H193.815V69.07H202.275V71.8H205.035V80.2H202.275V82.93H200.955V85.36H203.655V88.36H200.655V85.66H197.895V82.93H194.115V88.36H191.085ZM194.115 79.9H201.975V72.1H194.115V79.9Z" fill="white"/>
<path d="M54.362 123V104.64H45.182V101.4H66.782V104.64H57.632V123H54.362ZM68.9357 123V101.4H72.1757V123H68.9357ZM79.3417 123C78.6217 123 77.9617 122.83 77.3617 122.49C76.7817 122.13 76.3117 121.66 75.9517 121.08C75.6117 120.48 75.4417 119.82 75.4417 119.1V105.3C75.4417 104.58 75.6117 103.93 75.9517 103.35C76.3117 102.75 76.7817 102.28 77.3617 101.94C77.9617 101.58 78.6217 101.4 79.3417 101.4H96.9817V104.64H79.7917C79.4717 104.64 79.2017 104.75 78.9817 104.97C78.7817 105.17 78.6817 105.43 78.6817 105.75V118.65C78.6817 118.97 78.7817 119.24 78.9817 119.46C79.2017 119.66 79.4717 119.76 79.7917 119.76H96.9817V123H79.3417ZM100.14 123V101.4H103.41V110.55H109.38L117.06 101.4H120.81V102L112.26 112.2L120.84 122.4V123H117.06L109.38 113.85H103.41V123H100.14ZM124.076 123V101.4H143.876V104.64H127.346V110.55H140.636V113.85H127.346V119.76H143.876V123H124.076ZM155.085 123V104.64H145.905V101.4H167.505V104.64H158.355V123H155.085ZM173.528 123C172.828 123 172.178 122.83 171.578 122.49C170.978 122.13 170.498 121.66 170.138 121.08C169.798 120.48 169.628 119.82 169.628 119.1V117.84H172.868V119.01C172.868 119.21 172.938 119.39 173.078 119.55C173.238 119.69 173.418 119.76 173.618 119.76H187.238C187.438 119.76 187.608 119.69 187.748 119.55C187.888 119.39 187.958 119.21 187.958 119.01V114.57C187.958 114.35 187.888 114.18 187.748 114.06C187.608 113.92 187.438 113.85 187.238 113.85H173.528C172.828 113.85 172.178 113.67 171.578 113.31C170.978 112.95 170.498 112.48 170.138 111.9C169.798 111.3 169.628 110.64 169.628 109.92V105.3C169.628 104.58 169.798 103.93 170.138 103.35C170.498 102.75 170.978 102.28 171.578 101.94C172.178 101.58 172.828 101.4 173.528 101.4H187.328C188.028 101.4 188.678 101.58 189.278 101.94C189.878 102.28 190.348 102.75 190.688 103.35C191.048 103.93 191.228 104.58 191.228 105.3V106.56H187.958V105.39C187.958 105.19 187.888 105.02 187.748 104.88C187.608 104.72 187.438 104.64 187.238 104.64H173.618C173.418 104.64 173.238 104.72 173.078 104.88C172.938 105.02 172.868 105.19 172.868 105.39V109.83C172.868 110.05 172.938 110.23 173.078 110.37C173.238 110.49 173.418 110.55 173.618 110.55H187.328C188.028 110.55 188.678 110.73 189.278 111.09C189.878 111.45 190.348 111.93 190.688 112.53C191.048 113.11 191.228 113.76 191.228 114.48V119.1C191.228 119.82 191.048 120.48 190.688 121.08C190.348 121.66 189.878 122.13 189.278 122.49C188.678 122.83 188.028 123 187.328 123H173.528Z" fill="white"/>
<line x1="1.76777" y1="2.23223" x2="50.7678" y2="51.2322" stroke="white" stroke-width="5"/>
<line x1="51.6882" y1="53.5412" x2="51.6882" y2="16.6471" stroke="white" stroke-width="5"/>
<line x1="54" y1="51.5" x2="17" y2="51.5" stroke="white" stroke-width="5"/>
</svg>
